# xmcd
#
# Track frame offsets:
#   150
#   13890
#   28610
#   45680
#   60167
#   74742
#   90665
#   106055
#   125192
#   140790
#   157187
#   172840
#   185715
#   199055
#
# Disc length: 2888 seconds
#
# Revision: 0
# Processed by: cddbd v1.5.1PL0 Copyright (c) Steve Scherf et al.
# Submitted via: uFREEDB ActiveX Control 1.5
#
DISCID=cc0b460e
DTITLE=Banda Eclipse Lunar - O Impacto do Forró
DYEAR=1900
DGENRE=Latin
TTITLE0=Mulher e dinheiro
TTITLE1=Tira de pano
TTITLE2=Pena que pena
TTITLE3=Vai ou racha
TTITLE4=Poço de cerveja
TTITLE5=Sonho de amor
TTITLE6=Pot-pourri A) Você errou mais do que eu B) Carinho
TTITLE7=Não sou tão seu
TTITLE8=Jovem demais para o amor
TTITLE9=Você pode me perder
TTITLE10=Marcas de amor
TTITLE11=Condenada
TTITLE12=Ciúmes de você
TTITLE13=tchau tchau amor
EXTD=
EXTT0=
EXTT1=
EXTT2=
EXTT3=
EXTT4=
EXTT5=
EXTT6=
EXTT7=
EXTT8=
EXTT9=
EXTT10=
EXTT11=
EXTT12=
EXTT13=
PLAYORDER=
